<?xml version="1.0" standalone="no"?>
<!DOCTYPE svg PUBLIC "-//W3C//DTD SVG 20010904//EN"
 "http://www.w3.org/TR/2001/REC-SVG-20010904/DTD/svg10.dtd">
<svg version="1.0" xmlns="http://www.w3.org/2000/svg"
 width="250.000000pt" height="325.000000pt" viewBox="0 0 250.000000 325.000000"
 preserveAspectRatio="xMidYMid meet">

<g transform="translate(0.000000,325.000000) scale(0.100000,-0.100000)"
fill="#bb98e5" stroke="none">
<path d="M1219 3147 c-21 -159 -17 -391 9 -513 45 -209 105 -352 302 -719 235
-439 284 -555 296 -698 23 -265 -177 -548 -488 -692 -84 -38 -217 -79 -293
-89 -49 -7 -49 -6 62 52 196 104 318 203 425 345 106 143 170 279 183 392 l7
60 -53 -51 c-106 -100 -195 -156 -325 -203 -113 -41 -242 -60 -454 -66 -358
-11 -465 -38 -576 -141 -34 -32 -97 -126 -108 -161 -4 -12 -29 -39 -55 -61
-52 -41 -131 -127 -131 -143 0 -5 27 -9 60 -9 32 0 83 -5 112 -11 46 -10 51
-13 34 -23 -63 -36 -147 -141 -98 -121 9 4 40 9 67 12 69 7 138 -15 270 -87
61 -34 144 -76 185 -95 41 -19 93 -44 114 -56 99 -54 329 -83 486 -60 120 18
241 55 350 108 82 39 108 59 190 142 197 198 280 395 280 668 0 232 -40 369
-217 738 -166 344 -218 462 -253 566 -27 82 -29 94 -16 108 34 33 237 -30 386
-119 267 -160 409 -364 429 -615 l7 -80 26 82 c99 302 41 538 -191 771 -102
104 -192 174 -441 347 -102 70 -212 149 -245 174 -101 77 -223 201 -275 277
l-48 73 -13 -102z"/>
</g>
</svg>
